<?xml version="1.0" encoding="utf-8"?>
<!-- Generator: Adobe Illustrator 22.1.0, SVG Export Plug-In . SVG Version: 6.00 Build 0)  -->
<svg version="1.1" id="Layer_1" xmlns="http://www.w3.org/2000/svg" xmlns:xlink="http://www.w3.org/1999/xlink" x="0px" y="0px"
	 viewBox="0 0 180.4 216.5" style="enable-background:new 0 0 180.4 216.5;" xml:space="preserve">
<style type="text/css">
	.st0{fill:#CC0000;stroke:#990000;stroke-miterlimit:10;}
	.st1{fill:#33CC00;stroke:#349738;stroke-miterlimit:10;}
	.st2{fill:#FFFFFF;}
</style>
<g>
	<path class="st0" d="M19.3,79.6c2.3-4.8,4.3-9.7,7.1-14.2c2-3.3,5.2-5.5,10.6-3.8c1.5,0.5,4.2-0.4,5.9-1.3c17.8-9.4,35.1-5.2,42,11
		c8.6,20.2,17.7,40.3,31.4,58.7c13.3,17.7,27.9,34.9,41.6,52.4c1.9,2.4,4,6.3,2.8,8.3c-2,3.5-7.5,2.6-11.2,1.2
		c-8.5-3.2-17.3-6.4-24.9-10.7c-26.2-15.1-47.5-34.3-68.2-53.9c-9-8.6-17.7-17.4-26.3-26.3C24.1,94.9,20.6,88,19.3,79.6z M55,63.2
		c8.9,2.4,13.1,8,17.7,13.3c2.6,3,4.9,6.1,7.7,8.9c0.7,0.7,2.6,0.5,4,0.7c-0.2-1-0.1-2-0.5-2.9c-1.5-3.1-3-6.1-4.7-9.1
		c-2-3.4-3.6-7.1-6.4-10C68,59.1,61.5,58.9,55,63.2z"/>
	<path class="st1" d="M41,56.3c-5,2.1-6.5,2-8.8-3.1c-3.4-7.4-6.5-14.9-8.4-22.6c-1.5-6,3.1-8.9,9.6-6.8c1.5,0.5,3.1,2.5,3.2,3.9
		c0.3,5.2-0.7,10.5,0,15.6C37.1,47.6,39.4,51.8,41,56.3z"/>
	<path class="st2" d="M55,62.2c6.5-4.3,13-4.1,17.8,1c2.8,2.9,4.4,6.6,6.4,10c1.7,3,3.3,6,4.7,9.1c0.4,0.9,0.3,1.9,0.5,2.9
		c-1.4-0.2-3.3-0.1-4-0.7c-2.8-2.9-5.1-6-7.7-8.9C68.1,70.3,63.9,64.6,55,62.2z"/>
</g>
</svg>
