<?xml version="1.0" encoding="utf-8"?>
<!-- Generator: Adobe Illustrator 22.1.0, SVG Export Plug-In . SVG Version: 6.00 Build 0)  -->
<svg version="1.1" id="Layer_1" xmlns="http://www.w3.org/2000/svg" xmlns:xlink="http://www.w3.org/1999/xlink" x="0px" y="0px"
	 viewBox="0 0 165 165" style="enable-background:new 0 0 165 165;" xml:space="preserve">
<style type="text/css">
	.st0{fill:#98D6EF;}
	.st1{fill:#FFFFFF;}
</style>
<path class="st0" d="M150.6,92.8c0,9.5-0.3,19.2,0.2,28.7c0.2,4.4-1.8,6.5-6.4,8.2c-18.4,6.6-36.4,13.6-55,20
	c-3.3,1.1-7.6,1.5-10.8,0.7c-21.1-4.8-42-10.1-62.9-14.9c-5.3-1.2-6.7-3.4-6.6-7.7C9.2,107.9,9,87.9,9.3,68c0-2.7,1.6-6,3.7-8.1
	c6.3-6.6,13-13.1,20.1-18.9c5.8-4.8,8.8-9.8,7.6-16.6c-1-5,1.6-7.2,7.6-7.8c18.5-2.1,37-4.7,55.5-7.3c6.4-0.9,9.8,0.2,8.7,6.4
	c-1.1,6.2,1.7,10.6,6.8,14.9c9.4,7.7,18.2,16,26.9,24.3c2.3,2.2,3.8,5.6,4,8.5C150.9,73.2,150.6,83,150.6,92.8z M79.7,144.3
	c0-22.1,0-43.3,0-64.9C58.6,75.6,37.8,71.8,17,68.2c-0.4,1-0.8,1.6-0.8,2.1c0,18.4-0.2,37,0.2,55.4c0,1.5,2.4,3.8,4.3,4.4
	c8.8,2.4,17.8,4.4,26.6,6.5C57.9,139,68.4,141.6,79.7,144.3z M87.2,143.9c18.4-6.8,35.6-13.1,52.6-19.6c1.8-0.7,3.4-3.6,3.4-5.6
	c0.3-12.2,0.2-24.4,0.2-36.6c0-5.7,0-11.6,0-18.3c-18.6,4.9-36,9.3-53.3,14c-1.3,0.4-2.8,2.7-2.8,4
	C87.1,102.2,87.2,122.6,87.2,143.9z M140.2,58.1c-6.8-6.2-13.7-11.3-18.9-17.4c-8.4-9.8-18-13.1-32-9.4c-11.8,3-24.5,4-38,6.1
	c12,11.6,23.1,22.3,34.3,33c0.8,0.9,3.1,1.3,4.3,1C106.5,67,122.8,62.8,140.2,58.1z M78.5,73C66.3,61.2,55.5,50.7,44.1,39.8
	c-8.1,7.6-16,14.7-24.5,22.6C39.5,66,57.9,69.2,78.5,73z M48.2,31.5c19.6-2.9,38.2-5.7,56.8-8.5c0-2.7,0-4.9,0-7.6
	C85.8,18,67,20.5,48.2,23C48.2,26,48.2,28.5,48.2,31.5z"/>
<path class="st1" d="M81.6,147.7c-11.6-2.8-22.5-5.5-33.6-8.2c-9.1-2.2-18.4-4.3-27.5-6.8c-1.9-0.5-4.4-2.9-4.4-4.6
	C15.8,108.7,16,89.3,16,69.8c0-0.5,0.4-1.2,0.9-2.2c21.5,4,43,7.8,64.8,11.8C81.6,102.1,81.6,124.5,81.6,147.7z"/>
<path class="st1" d="M85.1,147.7c0-23,0-45,0.2-66.8c0-1.6,1.5-3.9,3-4.4c18-5.1,36.3-10,55.6-15.1c0,7.2,0,13.4,0,19.7
	c0,13.2,0.2,26.3-0.2,39.5c0,2.1-1.8,5.3-3.6,6.1C122.2,133.6,104.3,140.3,85.1,147.7z"/>
<path class="st1" d="M140.4,60c-17.6,4.8-34.1,9.2-50.9,13.7c-1.3,0.4-3.4-0.1-4.3-1c-11.4-11-22.6-22.3-34.7-34.2
	c13.7-2.1,26.5-3.2,38.4-6.3c14.2-3.8,23.9-0.4,32.4,9.7C126.6,48.2,133.5,53.5,140.4,60z"/>
<path class="st1" d="M74.7,73.8C56.5,70,40.4,66.5,22.8,62.9c7.5-8,14.3-15.3,21.5-23.1C54.4,51,64.1,61.7,74.7,73.8z"/>
<path class="st1" d="M50.5,30.6c0-2.9,0-5.1,0-8.2c18.2-2.3,36.4-4.8,55.3-7.2c0,2.6,0,4.6,0,7.2C87.8,25.1,69.7,27.8,50.5,30.6z"/>
</svg>
