<?xml version="1.0" encoding="utf-8"?>
<!-- Generator: Adobe Illustrator 22.1.0, SVG Export Plug-In . SVG Version: 6.00 Build 0)  -->
<svg version="1.1" id="Layer_1" xmlns="http://www.w3.org/2000/svg" xmlns:xlink="http://www.w3.org/1999/xlink" x="0px" y="0px"
	 viewBox="0 0 170.2 170.2" style="enable-background:new 0 0 170.2 170.2;" xml:space="preserve">
<style type="text/css">
	.st0{fill:#95C11F;}
	.st1{fill:#008D36;}
</style>
<g>
	<g>
		<circle class="st0" cx="82.5" cy="82.5" r="67.5"/>
		<path class="st1" d="M82.5,153.4c-18.9,0-36.7-7.4-50.1-20.8c-13.4-13.4-20.8-31.2-20.8-50.1S19,45.8,32.4,32.4
			c13.4-13.4,31.2-20.8,50.1-20.8s36.7,7.4,50.1,20.8c13.4,13.4,20.8,31.2,20.8,50.1s-7.4,36.7-20.8,50.1
			C119.2,146,101.4,153.4,82.5,153.4z M82.5,18.4c-35.3,0-64.1,28.7-64.1,64.1s28.7,64.1,64.1,64.1s64.1-28.7,64.1-64.1
			S117.9,18.4,82.5,18.4z"/>
	</g>
	<g>
		<path class="st1" d="M58.4,63.1h7.8L53.8,99.8h-8.5L32.8,63.1h7.8l6.9,21.8c0.4,1.3,0.8,2.8,1.2,4.5c0.4,1.7,0.7,2.9,0.8,3.6
			c0.2-1.6,0.8-4.2,1.9-8.1L58.4,63.1z"/>
		<path class="st1" d="M92,99.8H70.8V63.1H92v6.4H78.6v8H91v6.4H78.6v9.5H92V99.8z"/>
		<path class="st1" d="M113.5,79.2h14.5v19c-2.4,0.8-4.6,1.3-6.7,1.6c-2.1,0.3-4.2,0.5-6.4,0.5c-5.5,0-9.8-1.6-12.7-4.9
			c-2.9-3.3-4.4-7.9-4.4-14c0-5.9,1.7-10.5,5.1-13.9c3.4-3.3,8.1-5,14.1-5c3.7,0,7.4,0.7,10.9,2.3l-2.6,6.2c-2.7-1.3-5.5-2-8.4-2
			c-3.4,0-6,1.1-8.1,3.4c-2,2.3-3,5.3-3,9.1c0,4,0.8,7,2.5,9.1c1.6,2.1,4,3.1,7.1,3.1c1.6,0,3.3-0.2,4.9-0.5v-7.7h-6.9L113.5,79.2
			L113.5,79.2z"/>
	</g>
</g>
</svg>
