<?xml version="1.0" encoding="utf-8"?>
<!-- Generator: Adobe Illustrator 22.1.0, SVG Export Plug-In . SVG Version: 6.00 Build 0)  -->
<svg version="1.1" id="Layer_1" xmlns="http://www.w3.org/2000/svg" xmlns:xlink="http://www.w3.org/1999/xlink" x="0px" y="0px"
	 viewBox="0 0 170 169.9" style="enable-background:new 0 0 170 169.9;" xml:space="preserve">
<style type="text/css">
	.st0{fill:#FDCC68;stroke:#C99514;stroke-miterlimit:10;}
</style>
<path class="st0" d="M152.3,10.3c-0.1,1.3-0.1,2.5-0.3,3.7c-0.2,2.5-0.7,5-1.5,7.3c-0.7,2-1.4,3.9-2.8,5.5c-2.4,2.8-5.4,4.6-9.2,5
	c-1.8,0.2-3.5,0-5.2-0.5c-1-0.3-1.7-1-2-2.1c-0.5-1.5-0.7-3.1-0.6-4.7c0.2-3.7,1.9-6.9,4.6-9.4c1.5-1.4,3.3-2.2,5.1-2.9
	c2.4-0.9,4.9-1.4,7.4-1.7c1.3-0.1,2.6-0.2,4-0.3C152,10.3,152.1,10.3,152.3,10.3z"/>
<path class="st0" d="M15,152c-1.5-1.3-2.9-2.6-4.4-3.9c0.3-0.3,0.7-0.7,1-0.9c6-5.6,12.1-11.1,18.1-16.7
	c5.8-5.4,11.6-10.7,17.4-16.1c0.2-0.2,0.5-0.3,0.8-0.5c1.8-0.7,3.7-1.3,5.6-1.9c0,0,0.1,0,0.2-0.1c-0.2,0.3-0.3,0.6-0.4,0.8
	c-0.7,1.6-1.2,3.2-1.5,4.9c0,0.2-0.2,0.5-0.3,0.6c-1.6,1.5-3.3,3-4.9,4.5c-10.4,9.6-20.8,19.2-31.2,28.8
	C15.2,151.7,15.1,151.9,15,152z"/>
<path class="st0" d="M73,62.7c0.1,1,0.1,2.1,0.2,3.2c0.5,4.8,1.8,9.3,4.7,13.1c0.5,0.6,0.5,1.1,0.3,1.8c-0.7,2.7-2,5.1-4,7.1
	c-1.3,1.3-2.8,2.2-4.6,2.5c-0.7,0.1-1.3-0.1-1.9-0.5c-2.5-1.9-4-4.3-4.6-7.4c-0.6-3-0.1-5.9,0.8-8.8c1.5-4.7,4.4-8.3,8.6-10.8
	C72.7,62.8,72.8,62.8,73,62.7C73,62.7,73,62.7,73,62.7z"/>
<path class="st0" d="M59.7,75c0,0.2,0,0.4,0,0.6c0,2.9,0.3,5.8,1,8.6c0.5,2.1,1.2,4,2.1,5.8c0,0.1,0.1,0.2,0,0.3
	c-0.4,2.8-1.2,5.2-2.6,7.2c-0.7,1-1.5,1.7-2.5,2.1c-0.5,0.2-0.9,0-1.3-0.4c-1.4-1.5-2.2-3.6-2.6-6c-0.4-2.4-0.3-4.7,0.1-7
	c0.6-3.3,1.6-6.2,3.2-8.5c0.7-1,1.4-1.8,2.2-2.5C59.6,75.1,59.6,75.1,59.7,75z"/>
<path class="st0" d="M84.5,104c-0.5,0.9-1.1,1.8-1.8,2.6c-2.6,3-6,4.7-9.9,5.2c-2.9,0.4-5.7-0.2-8-2.2c-0.5-0.5-0.9-1-1.4-1.5
	c-0.6-0.7-0.6-1.3-0.4-2.1c0.5-1.6,1.4-2.9,2.7-3.9c1.6-1.3,3.3-2,5.3-2.4c0.1,0,0.2,0,0.3,0.1c2.6,2.1,5.6,3.4,8.9,3.8
	C81.7,103.8,83.1,103.9,84.5,104z"/>
<path class="st0" d="M115.3,70.4c-0.9,2-2,3.9-3.3,5.6c-3.3,4.3-7.4,6.7-12,7.8c-3,0.7-5.9,0.7-8.8-0.7c-2.5-1.2-4.5-3-6-5.7
	c-0.7-1.1-0.7-2.2-0.5-3.5c0.7-2.8,2-5.1,3.9-7c2.2-2.3,4.8-3.6,7.6-4.3c0.1,0,0.4,0,0.5,0.1c3.8,3.8,8.1,5.9,13,6.8
	C111.5,70,113.4,70.2,115.3,70.4z"/>
<path class="st0" d="M130.7,56.7c-1,0.9-2.2,1.8-3.7,2.6c-3.1,1.6-6.9,2.6-11.2,3.1c-3.2,0.4-6.4,0.4-9.4-0.2
	c-2.4-0.5-4.3-1.3-5.9-2.4c-0.7-0.5-0.8-1-0.5-1.6c0.7-1.2,2-2.1,3.9-2.9c2.2-0.9,4.8-1.5,7.6-1.8c0.1,0,0.3,0,0.4,0
	c4.1,1.8,8.9,2.7,14.1,3C127.6,56.6,129.2,56.6,130.7,56.7z"/>
<path class="st0" d="M99.9,89.7c-0.6,1.2-1.3,2.3-2,3.3c-2.8,3.5-6.4,5.5-10.4,6.4c-2.3,0.5-4.6,0.4-6.8-0.5c-2-0.8-3.7-2.2-4.9-4.1
	c-0.5-0.7-0.6-1.4-0.3-2.3c0.6-2.3,1.8-4,3.5-5.4c1.7-1.4,3.6-2.2,5.7-2.8c0.1,0,0.3,0,0.5,0.1c3.3,2.9,7,4.4,11.1,5
	C97.4,89.5,98.6,89.5,99.9,89.7z"/>
<path class="st0" d="M107.9,25.7c0,1.3,0,2.5,0.1,3.8c0.3,6.9,1.5,13.4,4.1,18.8c0,0.1,0.1,0.4,0.1,0.6c-0.6,4.5-1.7,8.5-3.9,11.4
	c-0.9,1.2-1.9,2.1-3.1,2.3c-0.4,0.1-0.7,0-1.1-0.4c-1.8-1.9-3-4.6-3.7-7.9c-0.7-3.4-0.7-6.9-0.3-10.4c0.5-4.1,1.4-7.9,2.9-11.3
	C104.4,29.8,106,27.5,107.9,25.7z"/>
<path class="st0" d="M92.4,41.1c0.1,1.5,0.1,2.9,0.3,4.3c0.7,6.1,2.7,11.7,7.1,16.5c0.1,0.1,0.2,0.4,0.1,0.5c-0.7,3-2,5.8-4.2,8.2
	c-2,2.1-4.3,3.7-7.3,4.3c-1.1,0.2-2.1,0-3.1-0.6c-3.2-2-5.3-4.7-6.3-8c-1.1-3.5-0.7-7,0.4-10.4c1.8-5.4,5-10,10.1-13.3
	C90.4,42.2,91.3,41.7,92.4,41.1z"/>
<path class="st0" d="M146.1,38.7c-0.2,1.4-0.6,2.8-1.1,4c-1.3,3.1-3,5.7-5.4,7.8c-2.5,2.2-5.3,3.1-8.5,2.8c-3.3-0.2-6-1.6-8.3-4.1
	c-0.3-0.4-0.6-0.7-0.9-1.2c-0.6-0.8-0.4-1.8-0.2-2.7c0.4-1.9,1.5-3.4,3-4.4c0.9-0.7,2-1.1,3-1.6c0.1-0.1,0.3-0.1,0.4,0
	c2.6,1.3,5.2,1.2,7.9,0.3c0.8-0.3,1.7-0.5,2.4-1c1.1-0.6,2.2-0.7,3.4-0.7c1.4,0.1,2.8,0.4,4.2,0.6C145.9,38.6,146,38.7,146.1,38.7z"
	/>
<path class="st0" d="M127.1,16.5c0.2,1.4,0.4,2.7,0.5,4c0.1,0.8,0,1.6-0.1,2.4c0,0.3-0.1,0.6-0.3,0.9c-0.8,1.8-1.6,3.5-1.8,5.5
	c-0.2,1.8,0,3.5,0.7,5.1c0.1,0.2,0.1,0.5,0,0.7c-0.7,1.9-1.9,3.6-3.6,4.8c-1.1,0.7-2.3,1.3-3.8,1.3c-0.6,0-1.1-0.1-1.5-0.4
	c-2.2-1.5-3.7-3.6-4.4-6c-1.6-5.1-0.3-9.5,3.9-13.2c2.6-2.3,5.7-4,9.3-4.8C126.4,16.6,126.7,16.5,127.1,16.5z"/>
</svg>
